# xmcd
# 
# Track frame offsets:
#     150
#     12792
#     27730
#     41457
#     62950
#     76152
#     89642
#     102595
#     117280
#     136225
#     145095
#     161592
#     176102
# 
# Disc length: 2512
# 
# Revision: 0
# Processed by: cddbd v1.5.2PL0 Copyright (c) Steve Scherf et al.
# Submitted via: fre:ac v1.0.17
# 
DISCID=b109ce0d
DTITLE=Give Buzze - Give Buzze
DYEAR=0
DGENRE=
TTITLE0=What Do You Want Me To Say
TTITLE1=I'm Riding
TTITLE2=A Long Way To The Top
TTITLE3=I Think I Got The Blues
TTITLE4=Maureen
TTITLE5=Begging For A Light
TTITLE6=Sorry I Forgot Your Name
TTITLE7=Try Me
TTITLE8=Bad Times and Trouble
TTITLE9=No Meat
TTITLE10=Take Me With You
TTITLE11=It's All Right With Me
TTITLE12=Pie
EXTD=
EXTT0=
EXTT1=
EXTT2=
EXTT3=
EXTT4=
EXTT5=
EXTT6=
EXTT7=
EXTT8=
EXTT9=
EXTT10=
EXTT11=
EXTT12=
PLAYORDER=
